HIERARCHY
ROOT reference
{
  OFFSET 0 0 0
  CHANNELS 6 Xposition Yposition Zposition Zrotation Xrotation Yrotation
  JOINT root
  {
    OFFSET 0 88.8689 0
    CHANNELS 6 Xposition Yposition Zposition Zrotation Xrotation Yrotation
    JOINT Hips
    {
      OFFSET 0 0 0
      CHANNELS 6 Xposition Yposition Zposition Zrotation Xrotation Yrotation
      JOINT Spine
      {
        OFFSET -0.01531 -0.106941 -0.009988
        CHANNELS 6 Xposition Yposition Zposition Zrotation Xrotation Yrotation
        JOINT Spine1
        {
          OFFSET 4.53759 17.4172 4.5334
          CHANNELS 6 Xposition Yposition Zposition Zrotation Xrotation Yrotation
          JOINT Spine2
          {
            OFFSET 5.11076 16.6965 6.29971
            CHANNELS 6 Xposition Yposition Zposition Zrotation Xrotation Yrotation
            JOINT Neck
            {
              OFFSET 8.03575 14.4553 8.42519
              CHANNELS 6 Xposition Yposition Zposition Zrotation Xrotation Yrotation
              JOINT Head
              {
                OFFSET 5.47211 7.67801 6.64042
                CHANNELS 6 Xposition Yposition Zposition Zrotation Xrotation Yrotation
                End Site
                {
                  OFFSET 0 0 0
                }
              }
            }
            JOINT RightShoulder
            {
              OFFSET 6.33563 13.5896 11.5279
              CHANNELS 6 Xposition Yposition Zposition Zrotation Xrotation Yrotation
              JOINT RightArm
              {
                OFFSET -6.26181 -6.12465 13.4865
                CHANNELS 6 Xposition Yposition Zposition Zrotation Xrotation Yrotation
                JOINT RightForearm
                {
                  OFFSET 3.58636 -13.984 25.6174
                  CHANNELS 6 Xposition Yposition Zposition Zrotation Xrotation Yrotation
                  JOINT RightHand
                  {
                    OFFSET 15.6659 -2.198 19.2652
                    CHANNELS 6 Xposition Yposition Zposition Zrotation Xrotation Yrotation
                    End Site
                    {
                      OFFSET 0 0 0
                    }
                  }
                }
              }
            }
            JOINT LeftShoulder
            {
              OFFSET 9.74583 15.3075 5.32994
              CHANNELS 6 Xposition Yposition Zposition Zrotation Xrotation Yrotation
              JOINT LeftArm
              {
                OFFSET 6.68129 3.33466 -14.2424
                CHANNELS 6 Xposition Yposition Zposition Zrotation Xrotation Yrotation
                JOINT LeftForearm
                {
                  OFFSET -8.20651 -13.2257 -24.9479
                  CHANNELS 6 Xposition Yposition Zposition Zrotation Xrotation Yrotation
                  JOINT LeftHand
                  {
                    OFFSET 15.6207 -17.9962 7.31658
                    CHANNELS 6 Xposition Yposition Zposition Zrotation Xrotation Yrotation
                    End Site
                    {
                      OFFSET 0 0 0
                    }
                  }
                }
              }
            }
          }
        }
      }
      JOINT RightUpLeg
      {
        OFFSET -4.70932 -0.432344 8.30629
        CHANNELS 6 Xposition Yposition Zposition Zrotation Xrotation Yrotation
        JOINT RightLeg
        {
          OFFSET 9.66163 -41.1966 15.3849
          CHANNELS 6 Xposition Yposition Zposition Zrotation Xrotation Yrotation
          JOINT RightFoot
          {
            OFFSET -6.29416 -39.3903 -10.2157
            CHANNELS 6 Xposition Yposition Zposition Zrotation Xrotation Yrotation
            JOINT RightToe
            {
              OFFSET 7.78621 -6.8796 14.7032
              CHANNELS 6 Xposition Yposition Zposition Zrotation Xrotation Yrotation
              End Site
              {
                OFFSET 0 0 0
              }
            }
          }
        }
      }
      JOINT LeftUpLeg
      {
        OFFSET 4.70932 0.432346 -8.30628
        CHANNELS 6 Xposition Yposition Zposition Zrotation Xrotation Yrotation
        JOINT LeftLeg
        {
          OFFSET 14.159 -39.629 -16.0084
          CHANNELS 6 Xposition Yposition Zposition Zrotation Xrotation Yrotation
          JOINT LeftFoot
          {
            OFFSET -7.74959 -36.5456 -17.3187
            CHANNELS 6 Xposition Yposition Zposition Zrotation Xrotation Yrotation
            JOINT LeftToe
            {
              OFFSET 11.9614 -12.8184 -4.09306
              CHANNELS 6 Xposition Yposition Zposition Zrotation Xrotation Yrotation
              End Site
              {
                OFFSET 0 0 0
              }
            }
          }
        }
      }
    }
  }
}
MOTION
Frames:	4
Frame Time:	0.0333333
10.4297 0 51.1344 0 0 -0 5.62269 88.6103 -10.1881 -0.0462898 -0.487332 -4.03352 1e-06 8e-06 1e-06 -0.341246 -0.617491 0.147983 -0.01531 -0.106941 -0.009988 0.702472 0.464645 0.438887 4.53759 17.4172 4.5334 1.08458 0.778237 0.588466 5.11076 16.6965 6.29971 0.770635 0.576221 0.249302 8.03575 14.4553 8.42519 -0.098589 -0.263022 0.259876 5.47211 7.67801 6.64042 -0.413519 -0.285371 0.480335 6.33563 13.5896 11.5279 -0.297014 -0.693077 -0.0438123 -6.26181 -6.12465 13.4865 -0.698724 0.370552 -0.0886328 3.58636 -13.984 25.6174 0.65502 -0.649213 1.02497 15.6659 -2.198 19.2652 -0.54838 -0.459768 0.161189 9.74583 15.3075 5.32994 -0.372099 -0.736014 0.0309229 6.68129 3.33466 -14.2424 -2.09331 0.385093 -0.282593 -8.20651 -13.2257 -24.9479 -0.148888 0.22874 0.138579 15.6207 -17.9962 7.31658 0.053503 0.0128642 0.063355 -4.70932 -0.432344 8.30629 -0.801812 -9.32334 2.04571 9.66163 -41.1966 15.3849 -17.6254 25.8947 4.13159 -6.29416 -39.3903 -10.2157 1.39789 22.025 0.108715 7.78621 -6.8796 14.7032 8.19471 -14.5886 1.95476 4.70932 0.432346 -8.30628 2.39168 -28.4413 17.0949 14.159 -39.629 -16.0084 -0.330693 0.0401904 0.14819 -7.74959 -36.5456 -17.3187 31.0408 -1.86936 -22.1112 11.9614 -12.8184 -4.09306 -22.8532 21.1581 2.79914 
10.8062 0 53.2163 0 0 -0 5.6603 88.7178 -10.6853 -0.0449556 -0.569178 -4.01509 1e-06 8e-06 1e-06 -0.323581 -0.58545 0.140605 -0.01531 -0.106941 -0.009988 0.668387 0.574265 0.425505 4.53759 17.4172 4.5334 1.02749 0.923662 0.552251 5.11076 16.6965 6.29971 0.726639 0.671753 0.220664 8.03575 14.4553 8.42519 -0.0179323 -0.380154 0.210124 5.47211 7.67801 6.64042 -0.343339 -0.548386 0.423764 6.33563 13.5896 11.5279 -0.192761 -0.545556 0.076323 -6.26181 -6.12465 13.4865 -1.06784 -0.210022 -0.124229 3.58636 -13.984 25.6174 0.51586 -0.513231 0.80812 15.6659 -2.198 19.2652 -0.372575 -0.304216 0.14061 9.74583 15.3075 5.32994 -0.391589 -0.803003 0.080796 6.68129 3.33466 -14.2424 -1.88379 0.398728 -0.142138 -8.20651 -13.2257 -24.9479 -0.294571 0.45137 0.274247 15.6207 -17.9962 7.31658 0.0192719 -0.0328628 0.143425 -4.70932 -0.432344 8.30629 -0.832573 -11.825 1.54713 9.66163 -41.1966 15.3849 -14.3339 21.6528 2.79546 -6.29416 -39.3903 -10.2157 2.36502 20.9725 0.585973 7.78621 -6.8796 14.7032 6.12818 -11.5444 1.30496 4.70932 0.432346 -8.30628 1.98932 -27.4611 17.192 14.159 -39.629 -16.0084 -0.231312 0.0282038 0.103639 -7.74959 -36.5456 -17.3187 31.2775 -1.91604 -22.4969 11.9614 -12.8184 -4.09306 -22.8309 20.2344 2.87203 
11.183 0 55.2767 0 0 -0 5.62958 88.8186 -11.1244 -0.0417754 -0.543294 -3.94977 1e-06 8e-06 1e-06 -0.305986 -0.553523 0.132919 -0.01531 -0.106941 -0.009988 0.628257 0.641694 0.425734 4.53759 17.4172 4.5334 0.966752 1.01254 0.541642 5.11076 16.6965 6.29971 0.683346 0.730646 0.213155 8.03575 14.4553 8.42519 0.0486544 -0.461988 0.155105 5.47211 7.67801 6.64042 -0.271986 -0.74292 0.35062 6.33563 13.5896 11.5279 -0.0840633 -0.367877 0.176783 -6.26181 -6.12465 13.4865 -1.40834 -0.753892 -0.311262 3.58636 -13.984 25.6174 0.406963 -0.406099 0.63809 15.6659 -2.198 19.2652 -0.228181 -0.169396 0.113218 9.74583 15.3075 5.32994 -0.39688 -0.84207 0.129254 6.68129 3.33466 -14.2424 -1.71737 0.439994 -0.0692709 -8.20651 -13.2257 -24.9479 -0.35056 0.536635 0.326405 15.6207 -17.9962 7.31658 -0.00547698 -0.0593905 0.172123 -4.70932 -0.432344 8.30629 -1.20498 -13.3671 1.20186 9.66163 -41.1966 15.3849 -9.91157 15.4337 1.37478 -6.29416 -39.3903 -10.2157 2.83234 20.4338 0.828406 7.78621 -6.8796 14.7032 2.43099 -6.79288 0.409503 4.70932 0.432346 -8.30628 1.65815 -26.5244 17.3255 14.159 -39.629 -16.0084 -0.162854 0.0199027 0.0729529 -7.74959 -36.5456 -17.3187 31.4247 -2.24305 -22.7728 11.9614 -12.8184 -4.09306 -23.0066 19.123 2.98522 
11.5998 0 57.3191 0 0 -0 5.5392 88.8871 -11.4854 -0.016295 -0.392806 -3.82738 1e-06 8e-06 1e-06 -0.288413 -0.521659 0.125398 -0.01531 -0.106941 -0.009988 0.580408 0.65093 0.432171 4.53759 17.4172 4.5334 0.899384 1.0217 0.548898 5.11076 16.6965 6.29971 0.638342 0.736707 0.223312 8.03575 14.4553 8.42519 0.084943 -0.490967 0.107031 5.47211 7.67801 6.64042 -0.218059 -0.82631 0.276761 6.33563 13.5896 11.5279 0.00658998 -0.194117 0.233926 -6.26181 -6.12465 13.4865 -1.61384 -1.13224 -0.651346 3.58636 -13.984 25.6174 0.363139 -0.362798 0.569561 15.6659 -2.198 19.2652 -0.157813 -0.0866277 0.0821797 9.74583 15.3075 5.32994 -0.381466 -0.836117 0.168772 6.68129 3.33466 -14.2424 -1.60271 0.551845 -0.0781093 -8.20651 -13.2257 -24.9479 -0.313017 0.479498 0.291437 15.6207 -17.9962 7.31658 -0.0243269 -0.0803493 0.172502 -4.70932 -0.432344 8.30629 -1.91433 -13.873 0.929791 9.66163 -41.1966 15.3849 -4.70049 7.48994 0.321489 -6.29416 -39.3903 -10.2157 2.45007 19.9845 0.999733 7.78621 -6.8796 14.7032 -1.71239 -0.971035 -0.0739164 4.70932 0.432346 -8.30628 1.3628 -25.6414 17.4845 14.159 -39.629 -16.0084 -0.115742 0.0141703 0.0518437 -7.74959 -36.5456 -17.3187 31.4874 -2.7924 -22.9703 11.9614 -12.8184 -4.09306 -23.343 18.5971 3.10525 
